<?xml version="1.0" encoding="UTF-8"?>
<!DOCTYPE svg PUBLIC "-//W3C//DTD SVG 1.1//EN" "http://www.w3.org/Graphics/SVG/1.1/DTD/svg11.dtd">
<!-- Creator: CorelDRAW -->
<svg xmlns="http://www.w3.org/2000/svg" xml:space="preserve" width="101.846mm" height="37.7004mm" version="1.1" style="shape-rendering:geometricPrecision; text-rendering:geometricPrecision; image-rendering:optimizeQuality; fill-rule:evenodd; clip-rule:evenodd"
viewBox="0 0 18280.18 6766.77"
 xmlns:xlink="http://www.w3.org/1999/xlink"
 xmlns:xodm="http://www.corel.com/coreldraw/odm/2003">
 <defs>
  <style type="text/css">
   <![CDATA[
    .str0 {stroke:white;stroke-width:15.83;stroke-miterlimit:22.926}
    .fil1 {fill:none;fill-rule:nonzero}
    .fil0 {fill:#6C7072;fill-rule:nonzero}
    .fil2 {fill:#54C247;fill-rule:nonzero}
   ]]>
  </style>
 </defs>
 <g id="Camada_x0020_1">
  <metadata id="CorelCorpID_0Corel-Layer"/>
  <polygon class="fil0" points="12502.74,4407.06 12211.87,4407.06 12211.87,4330.58 12307.48,4330.58 12307.48,3734.23 12211.87,3734.23 12211.87,3657.68 12502.74,3657.68 12502.74,3734.23 12407.13,3734.23 12407.13,4330.58 12502.74,4330.58 "/>
  <polygon class="fil1 str0" points="12502.74,4407.06 12211.87,4407.06 12211.87,4330.58 12307.48,4330.58 12307.48,3734.23 12211.87,3734.23 12211.87,3657.68 12502.74,3657.68 12502.74,3734.23 12407.13,3734.23 12407.13,4330.58 12502.74,4330.58 "/>
  <path class="fil0" d="M13054.62 4407.06l-94.66 0 0 -320.06c0,-25.85 -1.26,-49.84 -3.79,-72.26 -2.48,-22.27 -7.29,-40.13 -14.25,-53.56 -7.79,-14.05 -18.56,-24.57 -32.29,-31.46 -13.75,-6.84 -32.56,-10.27 -56.29,-10.27 -23.49,0 -47.74,6.26 -72.76,18.81 -25,12.6 -49.4,28.93 -73.25,49.13l0 419.68 -94.54 0 0 -562.14 94.54 0 0 62.43c28.16,-25.2 56.04,-44.44 83.57,-57.87 27.48,-13.43 56.54,-20.14 87.07,-20.14 55.41,0 98.65,18.16 129.86,54.58 31.16,36.4 46.79,89.15 46.79,158.29l0 364.85z"/>
  <path class="fil1 str0" d="M13054.62 4407.06l-94.66 0 0 -320.06c0,-25.85 -1.26,-49.84 -3.79,-72.26 -2.48,-22.27 -7.29,-40.13 -14.25,-53.56 -7.79,-14.05 -18.56,-24.57 -32.29,-31.46 -13.75,-6.84 -32.56,-10.27 -56.29,-10.27 -23.49,0 -47.74,6.26 -72.76,18.81 -25,12.6 -49.4,28.93 -73.25,49.13l0 419.68 -94.54 0 0 -562.14 94.54 0 0 62.43c28.16,-25.2 56.04,-44.44 83.57,-57.87 27.48,-13.43 56.54,-20.14 87.07,-20.14 55.41,0 98.65,18.16 129.86,54.58 31.16,36.4 46.79,89.15 46.79,158.29l0 364.85z"/>
  <path class="fil0" d="M13357.99 4418.15c-51.67,0 -91.95,-14.68 -120.81,-44.06 -28.88,-29.33 -43.31,-75.73 -43.31,-139.12l0 -311.52 -63.9 0 0 -78.53 63.9 0 0 -161.52 94.66 0 0 161.52 174.12 0 0 78.53 -174.12 0 0 267.2c0,28.56 0.43,50.53 1.45,65.91 1.01,15.45 4.86,29.88 11.65,43.31 5.64,11.77 14.88,20.59 27.61,26.47 12.8,5.82 30.08,8.74 51.85,8.74 15.45,0 30.41,-2.23 44.84,-6.78 14.43,-4.49 24.82,-8.35 31.16,-11.33l5.56 0 0 85.1c-17.79,5.01 -35.84,8.94 -54.13,11.77 -18.31,2.85 -35.09,4.31 -50.53,4.31z"/>
  <path class="fil1 str0" d="M13357.99 4418.15c-51.67,0 -91.95,-14.68 -120.81,-44.06 -28.88,-29.33 -43.31,-75.73 -43.31,-139.12l0 -311.52 -63.9 0 0 -78.53 63.9 0 0 -161.52 94.66 0 0 161.52 174.12 0 0 78.53 -174.12 0 0 267.2c0,28.56 0.43,50.53 1.45,65.91 1.01,15.45 4.86,29.88 11.65,43.31 5.64,11.77 14.88,20.59 27.61,26.47 12.8,5.82 30.08,8.74 51.85,8.74 15.45,0 30.41,-2.23 44.84,-6.78 14.43,-4.49 24.82,-8.35 31.16,-11.33l5.56 0 0 85.1c-17.79,5.01 -35.84,8.94 -54.13,11.77 -18.31,2.85 -35.09,4.31 -50.53,4.31z"/>
  <path class="fil0" d="M13886.94 4063.38c-0.7,-25.52 -3.66,-47.49 -9.05,-65.98 -5.38,-18.43 -13.1,-34.01 -23.12,-46.74 -11.15,-14.11 -25.25,-24.88 -42.54,-32.29 -17.3,-7.34 -38.7,-11.02 -64.22,-11.02 -25.13,0 -46.54,3.73 -64.13,11.27 -17.61,7.54 -33.64,18.56 -48.07,32.99 -14.13,14.75 -24.82,31.16 -32.16,49.07 -7.41,17.93 -12.1,38.82 -14.13,62.7l297.41 0zm-110.74 356.8c-89.53,0 -159.06,-25.27 -208.57,-75.74 -49.52,-50.53 -74.22,-122.27 -74.22,-215.15 0,-91.63 24,-164.5 71.94,-218.63 48,-54.28 110.74,-81.31 188.25,-81.31 34.89,0 65.78,5.01 92.63,15.08 26.78,10.12 50.27,25.88 70.41,47.3 20.14,21.52 35.57,47.74 46.29,78.76 10.7,31.03 16.14,69.03 16.14,113.97l0 51.35 -389.54 0c0,65.42 16.48,115.45 49.27,149.94 32.86,34.57 78.38,51.85 136.39,51.85 20.82,0 41.21,-2.33 61.22,-7.02 19.94,-4.76 38,-10.77 54.08,-18.18 17.09,-7.65 31.54,-15.13 43.24,-22.35 11.77,-7.22 21.47,-14.05 29.2,-20.39l5.56 0 0 103.21c-11.07,4.31 -24.82,9.82 -41.28,16.35 -16.41,6.52 -31.21,11.65 -44.26,15.31 -18.49,5.08 -35.2,8.87 -50.08,11.59 -15.02,2.73 -33.82,4.06 -56.68,4.06z"/>
  <path class="fil1 str0" d="M13886.94 4063.38c-0.7,-25.52 -3.66,-47.49 -9.05,-65.98 -5.38,-18.43 -13.1,-34.01 -23.12,-46.74 -11.15,-14.11 -25.25,-24.88 -42.54,-32.29 -17.3,-7.34 -38.7,-11.02 -64.22,-11.02 -25.13,0 -46.54,3.73 -64.13,11.27 -17.61,7.54 -33.64,18.56 -48.07,32.99 -14.13,14.75 -24.82,31.16 -32.16,49.07 -7.41,17.93 -12.1,38.82 -14.13,62.7l297.41 0zm-110.74 356.8c-89.53,0 -159.06,-25.27 -208.57,-75.74 -49.52,-50.53 -74.22,-122.27 -74.22,-215.15 0,-91.63 24,-164.5 71.94,-218.63 48,-54.28 110.74,-81.31 188.25,-81.31 34.89,0 65.78,5.01 92.63,15.08 26.78,10.12 50.27,25.88 70.41,47.3 20.14,21.52 35.57,47.74 46.29,78.76 10.7,31.03 16.14,69.03 16.14,113.97l0 51.35 -389.54 0c0,65.42 16.48,115.45 49.27,149.94 32.86,34.57 78.38,51.85 136.39,51.85 20.82,0 41.21,-2.33 61.22,-7.02 19.94,-4.76 38,-10.77 54.08,-18.18 17.09,-7.65 31.54,-15.13 43.24,-22.35 11.77,-7.22 21.47,-14.05 29.2,-20.39l5.56 0 0 103.21c-11.07,4.31 -24.82,9.82 -41.28,16.35 -16.41,6.52 -31.21,11.65 -44.26,15.31 -18.49,5.08 -35.2,8.87 -50.08,11.59 -15.02,2.73 -33.82,4.06 -56.68,4.06z"/>
  <polygon class="fil0 str0" points="14170.87,4407.06 14076.26,4407.06 14076.26,3623.99 14170.87,3623.99 "/>
  <polygon class="fil0 str0" points="14409.46,4407.06 14314.86,4407.06 14314.86,3623.99 14409.46,3623.99 "/>
  <path class="fil0 str0" d="M14645.46 4407.06l-94.61 0 0 -562.14 94.61 0 0 562.14zm6.57 -656.23l-107.64 0 0 -98.09 107.64 0 0 98.09z"/>
  <path class="fil0" d="M15122.77 4255.97l3.03 -308.49c-23.3,-11.65 -45.02,-20.01 -64.9,-25.07 -19.87,-5.01 -39.76,-7.66 -59.52,-7.84 -48.05,-0.52 -85.92,16.78 -113.78,51.66 -27.86,35.02 -42.18,85.36 -42.81,151.09 -0.57,62.43 9.44,110.04 30.08,142.78 20.64,32.74 54.46,49.32 101.43,49.83 24.52,0.2 49.77,-4.43 75.87,-13.93 26.08,-9.37 49.63,-22.79 70.59,-40.03zm-320.4 239.42c6.34,2.78 15.71,6.46 28.05,11.15 12.42,4.61 26.4,9.05 42.18,13.23 17.34,4.51 33.42,8.17 48.17,11.02 14.7,2.78 30.84,4.31 48.32,4.51 29.18,0.25 53.88,-3.3 74.27,-10.84 20.39,-7.47 36.35,-18.11 47.87,-31.72 10.89,-13.68 18.61,-29.58 23.12,-47.62 4.61,-18.04 6.96,-38.7 7.14,-61.87l0.52 -49.25c-25.65,21.84 -50.85,37.98 -75.42,48.25 -24.63,10.37 -55.41,15.38 -92.26,15.01 -64.15,-0.63 -114.85,-24.95 -152.28,-72.94 -37.5,-48 -55.73,-116.63 -54.83,-205.85 0.43,-46.72 7.41,-87.95 20.77,-123.92 13.48,-35.9 31.41,-66.36 53.81,-91.31 21.34,-24 46.49,-42.29 75.49,-55.08 28.99,-12.8 58.87,-19.06 89.85,-18.74 29.11,0.25 54.38,3.93 75.6,11.02 21.2,7.09 42.48,17.09 63.83,30.06l5.76 -24.12 89.08 0.9 -4.86 498.19c-0.95,95.31 -22.49,165.02 -64.47,209.28 -42.04,44.19 -105.86,65.84 -191.41,65.03 -27.48,-0.27 -55.59,-2.73 -84.22,-7.41 -28.68,-4.63 -55.34,-10.77 -80.11,-18.36l1.02 -98.59 4.99 0z"/>
  <path class="fil1 str0" d="M15122.77 4255.97l3.03 -308.49c-23.3,-11.65 -45.02,-20.01 -64.9,-25.07 -19.87,-5.01 -39.76,-7.66 -59.52,-7.84 -48.05,-0.52 -85.92,16.78 -113.78,51.66 -27.86,35.02 -42.18,85.36 -42.81,151.09 -0.57,62.43 9.44,110.04 30.08,142.78 20.64,32.74 54.46,49.32 101.43,49.83 24.52,0.2 49.77,-4.43 75.87,-13.93 26.08,-9.37 49.63,-22.79 70.59,-40.03zm-320.4 239.42c6.34,2.78 15.71,6.46 28.05,11.15 12.42,4.61 26.4,9.05 42.18,13.23 17.34,4.51 33.42,8.17 48.17,11.02 14.7,2.78 30.84,4.31 48.32,4.51 29.18,0.25 53.88,-3.3 74.27,-10.84 20.39,-7.47 36.35,-18.11 47.87,-31.72 10.89,-13.68 18.61,-29.58 23.12,-47.62 4.61,-18.04 6.96,-38.7 7.14,-61.87l0.52 -49.25c-25.65,21.84 -50.85,37.98 -75.42,48.25 -24.63,10.37 -55.41,15.38 -92.26,15.01 -64.15,-0.63 -114.85,-24.95 -152.28,-72.94 -37.5,-48 -55.73,-116.63 -54.83,-205.85 0.43,-46.72 7.41,-87.95 20.77,-123.92 13.48,-35.9 31.41,-66.36 53.81,-91.31 21.34,-24 46.49,-42.29 75.49,-55.08 28.99,-12.8 58.87,-19.06 89.85,-18.74 29.11,0.25 54.38,3.93 75.6,11.02 21.2,7.09 42.48,17.09 63.83,30.06l5.76 -24.12 89.08 0.9 -4.86 498.19c-0.95,95.31 -22.49,165.02 -64.47,209.28 -42.04,44.19 -105.86,65.84 -191.41,65.03 -27.48,-0.27 -55.59,-2.73 -84.22,-7.41 -28.68,-4.63 -55.34,-10.77 -80.11,-18.36l1.02 -98.59 4.99 0z"/>
  <path class="fil0" d="M15709.68 4063.38c-0.7,-25.52 -3.68,-47.49 -9.05,-65.98 -5.38,-18.43 -13.12,-34.01 -23.12,-46.74 -11.15,-14.11 -25.27,-24.88 -42.56,-32.29 -17.28,-7.34 -38.68,-11.02 -64.2,-11.02 -25.13,0 -46.54,3.73 -64.15,11.27 -17.59,7.54 -33.62,18.56 -48.05,32.99 -14.13,14.75 -24.82,31.16 -32.16,49.07 -7.48,17.93 -12.1,38.82 -14.13,62.7l297.41 0zm-110.74 356.8c-89.53,0 -159.06,-25.27 -208.58,-75.74 -49.5,-50.53 -74.2,-122.27 -74.2,-215.15 0,-91.63 24,-164.5 71.92,-218.63 48,-54.28 110.74,-81.31 188.25,-81.31 34.89,0 65.8,5.01 92.65,15.08 26.78,10.12 50.27,25.88 70.41,47.3 20.12,21.52 35.57,47.74 46.27,78.76 10.72,31.03 16.15,69.03 16.15,113.97l0 51.35 -389.54 0c0,65.42 16.46,115.45 49.27,149.94 32.86,34.57 78.38,51.85 136.38,51.85 20.84,0 41.23,-2.33 61.24,-7.02 19.94,-4.76 37.98,-10.77 54.08,-18.18 17.09,-7.65 31.52,-15.13 43.24,-22.35 11.77,-7.22 21.47,-14.05 29.18,-20.39l5.58 0 0 103.21c-11.09,4.31 -24.82,9.82 -41.28,16.35 -16.41,6.52 -31.23,11.65 -44.26,15.31 -18.49,5.08 -35.22,8.87 -50.1,11.59 -15.01,2.73 -33.82,4.06 -56.66,4.06z"/>
  <path class="fil1 str0" d="M15709.68 4063.38c-0.7,-25.52 -3.68,-47.49 -9.05,-65.98 -5.38,-18.43 -13.12,-34.01 -23.12,-46.74 -11.15,-14.11 -25.27,-24.88 -42.56,-32.29 -17.28,-7.34 -38.68,-11.02 -64.2,-11.02 -25.13,0 -46.54,3.73 -64.15,11.27 -17.59,7.54 -33.62,18.56 -48.05,32.99 -14.13,14.75 -24.82,31.16 -32.16,49.07 -7.48,17.93 -12.1,38.82 -14.13,62.7l297.41 0zm-110.74 356.8c-89.53,0 -159.06,-25.27 -208.58,-75.74 -49.5,-50.53 -74.2,-122.27 -74.2,-215.15 0,-91.63 24,-164.5 71.92,-218.63 48,-54.28 110.74,-81.31 188.25,-81.31 34.89,0 65.8,5.01 92.65,15.08 26.78,10.12 50.27,25.88 70.41,47.3 20.12,21.52 35.57,47.74 46.27,78.76 10.72,31.03 16.15,69.03 16.15,113.97l0 51.35 -389.54 0c0,65.42 16.46,115.45 49.27,149.94 32.86,34.57 78.38,51.85 136.38,51.85 20.84,0 41.23,-2.33 61.24,-7.02 19.94,-4.76 37.98,-10.77 54.08,-18.18 17.09,-7.65 31.52,-15.13 43.24,-22.35 11.77,-7.22 21.47,-14.05 29.18,-20.39l5.58 0 0 103.21c-11.09,4.31 -24.82,9.82 -41.28,16.35 -16.41,6.52 -31.23,11.65 -44.26,15.31 -18.49,5.08 -35.22,8.87 -50.1,11.59 -15.01,2.73 -33.82,4.06 -56.66,4.06z"/>
  <path class="fil0" d="M16338.89 4407.06l-94.66 0 0 -320.06c0,-25.85 -1.26,-49.84 -3.79,-72.26 -2.48,-22.27 -7.29,-40.13 -14.25,-53.56 -7.79,-14.05 -18.56,-24.57 -32.29,-31.46 -13.75,-6.84 -32.56,-10.27 -56.31,-10.27 -23.48,0 -47.74,6.26 -72.75,18.81 -25,12.6 -49.4,28.93 -73.27,49.13l0 419.68 -94.59 0 0 -562.14 94.59 0 0 62.43c28.18,-25.2 56.04,-44.44 83.59,-57.87 27.48,-13.43 56.54,-20.14 87.07,-20.14 55.41,0 98.65,18.16 129.86,54.58 31.16,36.4 46.79,89.15 46.79,158.29l0 364.85z"/>
  <path class="fil1 str0" d="M16338.89 4407.06l-94.66 0 0 -320.06c0,-25.85 -1.26,-49.84 -3.79,-72.26 -2.48,-22.27 -7.29,-40.13 -14.25,-53.56 -7.79,-14.05 -18.56,-24.57 -32.29,-31.46 -13.75,-6.84 -32.56,-10.27 -56.31,-10.27 -23.48,0 -47.74,6.26 -72.75,18.81 -25,12.6 -49.4,28.93 -73.27,49.13l0 419.68 -94.59 0 0 -562.14 94.59 0 0 62.43c28.18,-25.2 56.04,-44.44 83.59,-57.87 27.48,-13.43 56.54,-20.14 87.07,-20.14 55.41,0 98.65,18.16 129.86,54.58 31.16,36.4 46.79,89.15 46.79,158.29l0 364.85z"/>
  <path class="fil0" d="M16695.55 4419.62c-38.57,0 -73.97,-5.96 -106.19,-17.86 -32.24,-11.83 -59.84,-29.88 -83.01,-54.08 -23.12,-24.18 -41.1,-54.64 -53.83,-91.36 -12.78,-36.72 -19.12,-79.98 -19.12,-129.55 0,-49.32 6.59,-91.93 19.82,-127.85 13.3,-35.9 31.03,-66.03 53.13,-90.53 22.15,-24.57 49.77,-43.38 82.82,-56.68 32.99,-13.23 68.51,-19.87 106.38,-19.87 30.84,0 60.65,4.36 89.33,13.1 28.7,8.74 54.28,18.81 76.75,30.14l0 106.19 -5.51 0c-6.77,-5.64 -15.38,-12.22 -25.95,-19.62 -10.52,-7.36 -23.37,-14.88 -38.45,-22.62 -13.1,-6.71 -28.48,-12.6 -46.34,-17.61 -17.79,-5.06 -34.89,-7.52 -51.28,-7.52 -49.02,0 -88.4,18.49 -118.03,55.59 -29.71,37.05 -44.58,89.47 -44.58,157.29 0,66.43 14.38,118.21 43.06,155.26 28.68,37.1 68.51,55.61 119.56,55.61 30.84,0 60.15,-6.34 88,-19.13 27.86,-12.73 52.5,-29.18 74.02,-49.32l5.51 0 0 106.19c-9.37,4.38 -21.14,9.69 -35.27,15.9 -14.05,6.19 -26.78,10.82 -38.18,13.8 -16.08,4.68 -30.51,8.29 -43.31,10.82 -12.73,2.53 -29.13,3.73 -49.32,3.73z"/>
  <path class="fil1 str0" d="M16695.55 4419.62c-38.57,0 -73.97,-5.96 -106.19,-17.86 -32.24,-11.83 -59.84,-29.88 -83.01,-54.08 -23.12,-24.18 -41.1,-54.64 -53.83,-91.36 -12.78,-36.72 -19.12,-79.98 -19.12,-129.55 0,-49.32 6.59,-91.93 19.82,-127.85 13.3,-35.9 31.03,-66.03 53.13,-90.53 22.15,-24.57 49.77,-43.38 82.82,-56.68 32.99,-13.23 68.51,-19.87 106.38,-19.87 30.84,0 60.65,4.36 89.33,13.1 28.7,8.74 54.28,18.81 76.75,30.14l0 106.19 -5.51 0c-6.77,-5.64 -15.38,-12.22 -25.95,-19.62 -10.52,-7.36 -23.37,-14.88 -38.45,-22.62 -13.1,-6.71 -28.48,-12.6 -46.34,-17.61 -17.79,-5.06 -34.89,-7.52 -51.28,-7.52 -49.02,0 -88.4,18.49 -118.03,55.59 -29.71,37.05 -44.58,89.47 -44.58,157.29 0,66.43 14.38,118.21 43.06,155.26 28.68,37.1 68.51,55.61 119.56,55.61 30.84,0 60.15,-6.34 88,-19.13 27.86,-12.73 52.5,-29.18 74.02,-49.32l5.51 0 0 106.19c-9.37,4.38 -21.14,9.69 -35.27,15.9 -14.05,6.19 -26.78,10.82 -38.18,13.8 -16.08,4.68 -30.51,8.29 -43.31,10.82 -12.73,2.53 -29.13,3.73 -49.32,3.73z"/>
  <path class="fil0" d="M17302.06 4063.38c-0.7,-25.52 -3.68,-47.49 -9.06,-65.98 -5.38,-18.43 -13.1,-34.01 -23.12,-46.74 -11.13,-14.11 -25.25,-24.88 -42.54,-32.29 -17.28,-7.34 -38.7,-11.02 -64.2,-11.02 -25.15,0 -46.54,3.73 -64.15,11.27 -17.61,7.54 -33.62,18.56 -48.07,32.99 -14.11,14.75 -24.81,31.16 -32.16,49.07 -7.39,17.93 -12.08,38.82 -14.11,62.7l297.41 0zm-110.74 356.8c-89.55,0 -159.06,-25.27 -208.58,-75.74 -49.52,-50.53 -74.22,-122.27 -74.22,-215.15 0,-91.63 24,-164.5 71.94,-218.63 48,-54.28 110.74,-81.31 188.25,-81.31 34.89,0 65.78,5.01 92.63,15.08 26.78,10.12 50.27,25.88 70.41,47.3 20.14,21.52 35.59,47.74 46.29,78.76 10.7,31.03 16.15,69.03 16.15,113.97l0 51.35 -389.54 0c0,65.42 16.46,115.45 49.25,149.94 32.86,34.57 78.4,51.85 136.39,51.85 20.84,0 41.23,-2.33 61.22,-7.02 19.96,-4.76 38,-10.77 54.08,-18.18 17.11,-7.65 31.54,-15.13 43.26,-22.35 11.77,-7.22 21.47,-14.05 29.18,-20.39l5.56 0 0 103.21c-11.07,4.31 -24.82,9.82 -41.28,16.35 -16.39,6.52 -31.21,11.65 -44.26,15.31 -18.49,5.08 -35.2,8.87 -50.08,11.59 -15.01,2.73 -33.82,4.06 -56.66,4.06z"/>
  <path class="fil1 str0" d="M17302.06 4063.38c-0.7,-25.52 -3.68,-47.49 -9.06,-65.98 -5.38,-18.43 -13.1,-34.01 -23.12,-46.74 -11.13,-14.11 -25.25,-24.88 -42.54,-32.29 -17.28,-7.34 -38.7,-11.02 -64.2,-11.02 -25.15,0 -46.54,3.73 -64.15,11.27 -17.61,7.54 -33.62,18.56 -48.07,32.99 -14.11,14.75 -24.81,31.16 -32.16,49.07 -7.39,17.93 -12.08,38.82 -14.11,62.7l297.41 0zm-110.74 356.8c-89.55,0 -159.06,-25.27 -208.58,-75.74 -49.52,-50.53 -74.22,-122.27 -74.22,-215.15 0,-91.63 24,-164.5 71.94,-218.63 48,-54.28 110.74,-81.31 188.25,-81.31 34.89,0 65.78,5.01 92.63,15.08 26.78,10.12 50.27,25.88 70.41,47.3 20.14,21.52 35.59,47.74 46.29,78.76 10.7,31.03 16.15,69.03 16.15,113.97l0 51.35 -389.54 0c0,65.42 16.46,115.45 49.25,149.94 32.86,34.57 78.4,51.85 136.39,51.85 20.84,0 41.23,-2.33 61.22,-7.02 19.96,-4.76 38,-10.77 54.08,-18.18 17.11,-7.65 31.54,-15.13 43.26,-22.35 11.77,-7.22 21.47,-14.05 29.18,-20.39l5.56 0 0 103.21c-11.07,4.31 -24.82,9.82 -41.28,16.35 -16.39,6.52 -31.21,11.65 -44.26,15.31 -18.49,5.08 -35.2,8.87 -50.08,11.59 -15.01,2.73 -33.82,4.06 -56.66,4.06z"/>
  <path class="fil0" d="M12533.94 5490.04c-48.95,0 -94.03,-8.22 -135.12,-24.63 -41.1,-16.46 -76.62,-40.96 -106.44,-73.45 -29.88,-32.54 -53,-73.14 -69.41,-121.76 -16.53,-48.7 -24.7,-104.53 -24.7,-167.68 0,-62.68 7.99,-117.39 23.87,-163.98 15.96,-46.67 39.2,-87.27 69.71,-121.76 29.9,-33.64 65.3,-59.21 106.26,-76.82 40.91,-17.59 86.69,-26.4 137.34,-26.4 25.2,0 48.7,1.9 70.66,5.58 21.97,3.66 42.41,8.29 61.17,14.05 16.14,5.01 32.6,11.27 49.57,18.86 16.96,7.54 33.69,15.9 50.08,24.89l0 120.29 -8.04 0c-8.74,-8.04 -19.99,-17.79 -33.67,-29.18 -13.82,-11.45 -30.58,-22.67 -50.35,-33.74 -19.12,-10.32 -39.95,-18.86 -62.43,-25.65 -22.49,-6.64 -48.44,-10.07 -78.02,-10.07 -31.91,0 -62.1,6.52 -90.61,19.64 -28.48,13.1 -53.51,32.34 -74.9,57.87 -21.22,25.45 -37.62,57.56 -49.4,96.12 -11.77,38.63 -17.54,82.01 -17.54,130.31 0,51.35 6.14,95.61 18.54,132.66 12.42,37.05 29.38,68.38 50.85,93.84 20.84,24.82 45.34,43.56 73.46,56.11 28.16,12.6 58.05,18.86 89.58,18.86 28.88,0 55.53,-3.48 80.03,-10.5 24.45,-7.11 46.29,-15.96 65.42,-26.73 18.49,-10.39 34.37,-21.02 47.8,-31.91 13.43,-10.89 24,-20.26 31.73,-27.93l7.52 0 0 118.73c-16.39,7.79 -31.97,15.13 -46.54,22.15 -14.63,7.04 -32.34,13.95 -53.11,20.59 -21.79,7.09 -41.98,12.4 -60.6,16.21 -18.68,3.68 -42.93,5.44 -72.76,5.44z"/>
  <path class="fil1 str0" d="M12533.94 5490.04c-48.95,0 -94.03,-8.22 -135.12,-24.63 -41.1,-16.46 -76.62,-40.96 -106.44,-73.45 -29.88,-32.54 -53,-73.14 -69.41,-121.76 -16.53,-48.7 -24.7,-104.53 -24.7,-167.68 0,-62.68 7.99,-117.39 23.87,-163.98 15.96,-46.67 39.2,-87.27 69.71,-121.76 29.9,-33.64 65.3,-59.21 106.26,-76.82 40.91,-17.59 86.69,-26.4 137.34,-26.4 25.2,0 48.7,1.9 70.66,5.58 21.97,3.66 42.41,8.29 61.17,14.05 16.14,5.01 32.6,11.27 49.57,18.86 16.96,7.54 33.69,15.9 50.08,24.89l0 120.29 -8.04 0c-8.74,-8.04 -19.99,-17.79 -33.67,-29.18 -13.82,-11.45 -30.58,-22.67 -50.35,-33.74 -19.12,-10.32 -39.95,-18.86 -62.43,-25.65 -22.49,-6.64 -48.44,-10.07 -78.02,-10.07 -31.91,0 -62.1,6.52 -90.61,19.64 -28.48,13.1 -53.51,32.34 -74.9,57.87 -21.22,25.45 -37.62,57.56 -49.4,96.12 -11.77,38.63 -17.54,82.01 -17.54,130.31 0,51.35 6.14,95.61 18.54,132.66 12.42,37.05 29.38,68.38 50.85,93.84 20.84,24.82 45.34,43.56 73.46,56.11 28.16,12.6 58.05,18.86 89.58,18.86 28.88,0 55.53,-3.48 80.03,-10.5 24.45,-7.11 46.29,-15.96 65.42,-26.73 18.49,-10.39 34.37,-21.02 47.8,-31.91 13.43,-10.89 24,-20.26 31.73,-27.93l7.52 0 0 118.73c-16.39,7.79 -31.97,15.13 -46.54,22.15 -14.63,7.04 -32.34,13.95 -53.11,20.59 -21.79,7.09 -41.98,12.4 -60.6,16.21 -18.68,3.68 -42.93,5.44 -72.76,5.44z"/>
  <path class="fil0" d="M13217.79 5195.64c0,-72.82 -13.3,-126.9 -39.83,-162.29 -26.4,-35.4 -64.2,-53.11 -113.22,-53.11 -49.25,0 -87.25,17.72 -113.97,53.11 -26.65,35.4 -40.01,89.47 -40.01,162.29 0,70.47 13.35,123.92 40.01,160.26 26.73,36.4 64.72,54.64 113.97,54.64 48.64,0 86.32,-17.84 113.04,-53.63 26.65,-35.7 40.01,-89.46 40.01,-161.27zm97.57 0c0,94.66 -22.79,167.73 -68.38,219.21 -45.59,51.48 -106.36,77.25 -182.23,77.25 -78.13,0 -139.61,-26.6 -184.44,-79.78 -44.76,-53.18 -67.18,-125.37 -67.18,-216.68 0,-93.91 23.12,-166.91 69.26,-218.89 46.11,-52 106.96,-78.02 182.36,-78.02 75.87,0 136.64,25.97 182.23,77.75 45.59,51.87 68.38,124.94 68.38,219.15z"/>
  <path class="fil1 str0" d="M13217.79 5195.64c0,-72.82 -13.3,-126.9 -39.83,-162.29 -26.4,-35.4 -64.2,-53.11 -113.22,-53.11 -49.25,0 -87.25,17.72 -113.97,53.11 -26.65,35.4 -40.01,89.47 -40.01,162.29 0,70.47 13.35,123.92 40.01,160.26 26.73,36.4 64.72,54.64 113.97,54.64 48.64,0 86.32,-17.84 113.04,-53.63 26.65,-35.7 40.01,-89.46 40.01,-161.27zm97.57 0c0,94.66 -22.79,167.73 -68.38,219.21 -45.59,51.48 -106.36,77.25 -182.23,77.25 -78.13,0 -139.61,-26.6 -184.44,-79.78 -44.76,-53.18 -67.18,-125.37 -67.18,-216.68 0,-93.91 23.12,-166.91 69.26,-218.89 46.11,-52 106.96,-78.02 182.36,-78.02 75.87,0 136.64,25.97 182.23,77.75 45.59,51.87 68.38,124.94 68.38,219.15z"/>
  <path class="fil0" d="M13854.49 5476.49l-94.66 0 0 -320.08c0,-25.83 -1.27,-49.83 -3.81,-72.24 -2.46,-22.29 -7.27,-40.15 -14.23,-53.56 -7.79,-14.07 -18.56,-24.57 -32.31,-31.48 -13.73,-6.84 -32.54,-10.25 -56.29,-10.25 -23.49,0 -47.74,6.26 -72.75,18.81 -25.02,12.6 -49.4,28.93 -73.27,49.13l0 419.68 -94.59 0 0 -562.14 94.59 0 0 62.43c28.18,-25.2 56.04,-44.46 83.59,-57.87 27.48,-13.43 56.54,-20.14 87.05,-20.14 55.35,0 98.66,18.16 129.88,54.58 31.16,36.4 46.79,89.15 46.79,158.29l0 364.85z"/>
  <path class="fil1 str0" d="M13854.49 5476.49l-94.66 0 0 -320.08c0,-25.83 -1.27,-49.83 -3.81,-72.24 -2.46,-22.29 -7.27,-40.15 -14.23,-53.56 -7.79,-14.07 -18.56,-24.57 -32.31,-31.48 -13.73,-6.84 -32.54,-10.25 -56.29,-10.25 -23.49,0 -47.74,6.26 -72.75,18.81 -25.02,12.6 -49.4,28.93 -73.27,49.13l0 419.68 -94.59 0 0 -562.14 94.59 0 0 62.43c28.18,-25.2 56.04,-44.46 83.59,-57.87 27.48,-13.43 56.54,-20.14 87.05,-20.14 55.35,0 98.66,18.16 129.88,54.58 31.16,36.4 46.79,89.15 46.79,158.29l0 364.85z"/>
  <path class="fil0" d="M14157.77 5487.58c-51.66,0 -91.93,-14.7 -120.81,-44.06 -28.86,-29.33 -43.31,-75.74 -43.31,-139.12l0 -311.54 -63.88 0 0 -78.51 63.88 0 0 -161.52 94.66 0 0 161.52 174.14 0 0 78.51 -174.14 0 0 267.22c0,28.56 0.45,50.53 1.45,65.91 1.02,15.45 4.88,29.88 11.67,43.31 5.64,11.77 14.88,20.59 27.61,26.47 12.78,5.82 30.06,8.72 51.85,8.72 15.45,0 30.39,-2.21 44.84,-6.77 14.43,-4.51 24.82,-8.36 31.14,-11.34l5.58 0 0 85.11c-17.81,5.01 -35.84,8.92 -54.15,11.77 -18.29,2.85 -35.07,4.31 -50.53,4.31z"/>
  <path class="fil1 str0" d="M14157.77 5487.58c-51.66,0 -91.93,-14.7 -120.81,-44.06 -28.86,-29.33 -43.31,-75.74 -43.31,-139.12l0 -311.54 -63.88 0 0 -78.51 63.88 0 0 -161.52 94.66 0 0 161.52 174.14 0 0 78.51 -174.14 0 0 267.22c0,28.56 0.45,50.53 1.45,65.91 1.02,15.45 4.88,29.88 11.67,43.31 5.64,11.77 14.88,20.59 27.61,26.47 12.78,5.82 30.06,8.72 51.85,8.72 15.45,0 30.39,-2.21 44.84,-6.77 14.43,-4.51 24.82,-8.36 31.14,-11.34l5.58 0 0 85.11c-17.81,5.01 -35.84,8.92 -54.15,11.77 -18.29,2.85 -35.07,4.31 -50.53,4.31z"/>
  <path class="fil0" d="M14629.89 5015.97l-5.06 0c-7.02,-2.03 -14.5,-3.28 -22.42,-3.73 -7.84,-0.57 -17.34,-0.75 -28.43,-0.75 -25.51,0 -50.83,5.51 -75.98,16.58 -25.13,11.09 -48.95,27.48 -71.49,49.32l0 399.11 -94.54 0 0 -562.16 94.54 0 0 83.52c34.64,-30.51 64.72,-52.11 90.35,-64.63 25.65,-12.55 50.6,-18.88 74.79,-18.88 9.67,0 17.03,0.25 21.9,0.77 4.81,0.5 10.27,1.2 16.33,2.28l0 98.57z"/>
  <path class="fil1 str0" d="M14629.89 5015.97l-5.06 0c-7.02,-2.03 -14.5,-3.28 -22.42,-3.73 -7.84,-0.57 -17.34,-0.75 -28.43,-0.75 -25.51,0 -50.83,5.51 -75.98,16.58 -25.13,11.09 -48.95,27.48 -71.49,49.32l0 399.11 -94.54 0 0 -562.16 94.54 0 0 83.52c34.64,-30.51 64.72,-52.11 90.35,-64.63 25.65,-12.55 50.6,-18.88 74.79,-18.88 9.67,0 17.03,0.25 21.9,0.77 4.81,0.5 10.27,1.2 16.33,2.28l0 98.57z"/>
  <path class="fil0" d="M15062.15 5195.64c0,-72.82 -13.3,-126.9 -39.83,-162.29 -26.4,-35.4 -64.2,-53.11 -113.2,-53.11 -49.27,0 -87.27,17.72 -113.97,53.11 -26.67,35.4 -40.03,89.47 -40.03,162.29 0,70.47 13.35,123.92 40.03,160.26 26.71,36.4 64.71,54.64 113.97,54.64 48.62,0 86.3,-17.84 113.02,-53.63 26.65,-35.7 40.01,-89.46 40.01,-161.27zm97.59 0c0,94.66 -22.79,167.73 -68.38,219.21 -45.59,51.48 -106.38,77.25 -182.23,77.25 -78.15,0 -139.62,-26.6 -184.46,-79.78 -44.76,-53.18 -67.18,-125.37 -67.18,-216.68 0,-93.91 23.12,-166.91 69.28,-218.89 46.09,-52 106.94,-78.02 182.36,-78.02 75.85,0 136.64,25.97 182.23,77.75 45.59,51.87 68.38,124.94 68.38,219.15z"/>
  <path class="fil1 str0" d="M15062.15 5195.64c0,-72.82 -13.3,-126.9 -39.83,-162.29 -26.4,-35.4 -64.2,-53.11 -113.2,-53.11 -49.27,0 -87.27,17.72 -113.97,53.11 -26.67,35.4 -40.03,89.47 -40.03,162.29 0,70.47 13.35,123.92 40.03,160.26 26.71,36.4 64.71,54.64 113.97,54.64 48.62,0 86.3,-17.84 113.02,-53.63 26.65,-35.7 40.01,-89.46 40.01,-161.27zm97.59 0c0,94.66 -22.79,167.73 -68.38,219.21 -45.59,51.48 -106.38,77.25 -182.23,77.25 -78.15,0 -139.62,-26.6 -184.46,-79.78 -44.76,-53.18 -67.18,-125.37 -67.18,-216.68 0,-93.91 23.12,-166.91 69.28,-218.89 46.09,-52 106.94,-78.02 182.36,-78.02 75.85,0 136.64,25.97 182.23,77.75 45.59,51.87 68.38,124.94 68.38,219.15z"/>
  <polygon class="fil0 str0" points="15353.55,5476.47 15258.95,5476.47 15258.95,4693.4 15353.55,4693.4 "/>
  <polygon class="fil0" points="12883.24,6545.98 12783.57,6545.98 12783.57,5900.31 12588.31,6339.68 12527.89,6339.68 12334.21,5900.31 12334.21,6545.98 12241.05,6545.98 12241.05,5796.59 12376.94,5796.59 12564.11,6213.88 12744.77,5796.59 12883.24,5796.59 "/>
  <polygon class="fil1 str0" points="12883.24,6545.98 12783.57,6545.98 12783.57,5900.31 12588.31,6339.68 12527.89,6339.68 12334.21,5900.31 12334.21,6545.98 12241.05,6545.98 12241.05,5796.59 12376.94,5796.59 12564.11,6213.88 12744.77,5796.59 12883.24,5796.59 "/>
  <path class="fil0" d="M13342.21 6407.58l0 -156.01c-22.47,2.03 -50.97,4.81 -85.35,8.29 -34.39,3.55 -62.12,8.49 -83.26,14.88 -25.15,7.66 -45.97,19.51 -62.37,35.47 -16.46,15.88 -24.7,38.11 -24.7,66.66 0,32.18 9.05,56.56 27.23,73.02 18.04,16.41 44.58,24.63 79.46,24.63 29.83,0 56.86,-6.46 80.99,-19.37 24.19,-12.92 46.86,-28.81 68.01,-47.56zm0 78.45c-7.72,5.76 -18.04,13.75 -30.96,23.94 -12.92,10.25 -25.4,18.36 -37.48,24.45 -16.78,8.67 -32.99,15.44 -48.57,20.12 -15.65,4.63 -37.55,7.04 -65.73,7.04 -23.12,0 -45.09,-4.36 -65.91,-13.05 -20.78,-8.79 -39.07,-21.02 -54.83,-36.78 -15.08,-15.4 -27.17,-34.52 -36.29,-57.11 -8.99,-22.67 -13.55,-46.61 -13.55,-71.69 0,-38.93 8.24,-72.05 24.63,-99.47 16.48,-27.28 42.5,-49.02 78.02,-65.1 31.54,-14.43 68.82,-24.43 111.75,-30.01 42.93,-5.51 89.22,-9.62 138.92,-12.28l0 -18.18c0,-22.09 -3.41,-40.01 -10.07,-53.56 -6.77,-13.55 -16.08,-24 -28.18,-31.46 -12.08,-7.66 -26.83,-12.8 -44.32,-15.33 -17.41,-2.48 -35.4,-3.73 -53.83,-3.73 -21.84,0 -47.47,3.23 -76.98,9.82 -29.51,6.52 -59.02,16.01 -88.6,28.36l-5.51 0 0 -96.12c17.41,-5.01 42.43,-10.52 74.92,-16.53 32.6,-6.08 64.78,-9.12 96.69,-9.12 38.55,0 71.1,3.03 97.62,9.12 26.47,6.01 50.27,16.91 71.44,32.61 20.44,15.45 35.77,35.45 45.84,59.97 10,24.5 15.06,54.33 15.06,89.53l0 384.54 -94.09 0 0 -59.97z"/>
  <path class="fil1 str0" d="M13342.21 6407.58l0 -156.01c-22.47,2.03 -50.97,4.81 -85.35,8.29 -34.39,3.55 -62.12,8.49 -83.26,14.88 -25.15,7.66 -45.97,19.51 -62.37,35.47 -16.46,15.88 -24.7,38.11 -24.7,66.66 0,32.18 9.05,56.56 27.23,73.02 18.04,16.41 44.58,24.63 79.46,24.63 29.83,0 56.86,-6.46 80.99,-19.37 24.19,-12.92 46.86,-28.81 68.01,-47.56zm0 78.45c-7.72,5.76 -18.04,13.75 -30.96,23.94 -12.92,10.25 -25.4,18.36 -37.48,24.45 -16.78,8.67 -32.99,15.44 -48.57,20.12 -15.65,4.63 -37.55,7.04 -65.73,7.04 -23.12,0 -45.09,-4.36 -65.91,-13.05 -20.78,-8.79 -39.07,-21.02 -54.83,-36.78 -15.08,-15.4 -27.17,-34.52 -36.29,-57.11 -8.99,-22.67 -13.55,-46.61 -13.55,-71.69 0,-38.93 8.24,-72.05 24.63,-99.47 16.48,-27.28 42.5,-49.02 78.02,-65.1 31.54,-14.43 68.82,-24.43 111.75,-30.01 42.93,-5.51 89.22,-9.62 138.92,-12.28l0 -18.18c0,-22.09 -3.41,-40.01 -10.07,-53.56 -6.77,-13.55 -16.08,-24 -28.18,-31.46 -12.08,-7.66 -26.83,-12.8 -44.32,-15.33 -17.41,-2.48 -35.4,-3.73 -53.83,-3.73 -21.84,0 -47.47,3.23 -76.98,9.82 -29.51,6.52 -59.02,16.01 -88.6,28.36l-5.51 0 0 -96.12c17.41,-5.01 42.43,-10.52 74.92,-16.53 32.6,-6.08 64.78,-9.12 96.69,-9.12 38.55,0 71.1,3.03 97.62,9.12 26.47,6.01 50.27,16.91 71.44,32.61 20.44,15.45 35.77,35.45 45.84,59.97 10,24.5 15.06,54.33 15.06,89.53l0 384.54 -94.09 0 0 -59.97z"/>
  <path class="fil0" d="M14011.11 6545.98l-94.66 0 0 -320.08c0,-25.85 -1.27,-49.84 -3.81,-72.24 -2.46,-22.29 -7.27,-40.15 -14.25,-53.58 -7.77,-14.05 -18.54,-24.57 -32.29,-31.46 -13.73,-6.84 -32.54,-10.27 -56.29,-10.27 -23.49,0 -47.74,6.28 -72.75,18.81 -25.02,12.6 -49.4,28.93 -73.27,49.14l0 419.68 -94.59 0 0 -562.16 94.59 0 0 62.44c28.18,-25.22 56.04,-44.46 83.59,-57.88 27.48,-13.43 56.54,-20.14 87.05,-20.14 55.41,0 98.66,18.18 129.88,54.58 31.16,36.42 46.79,89.15 46.79,158.31l0 364.85z"/>
  <path class="fil1 str0" d="M14011.11 6545.98l-94.66 0 0 -320.08c0,-25.85 -1.27,-49.84 -3.81,-72.24 -2.46,-22.29 -7.27,-40.15 -14.25,-53.58 -7.77,-14.05 -18.54,-24.57 -32.29,-31.46 -13.73,-6.84 -32.54,-10.27 -56.29,-10.27 -23.49,0 -47.74,6.28 -72.75,18.81 -25.02,12.6 -49.4,28.93 -73.27,49.14l0 419.68 -94.59 0 0 -562.16 94.59 0 0 62.44c28.18,-25.22 56.04,-44.46 83.59,-57.88 27.48,-13.43 56.54,-20.14 87.05,-20.14 55.41,0 98.66,18.18 129.88,54.58 31.16,36.42 46.79,89.15 46.79,158.31l0 364.85z"/>
  <path class="fil0" d="M14458.39 6407.58l0 -156.01c-22.49,2.03 -50.97,4.81 -85.36,8.29 -34.37,3.55 -62.1,8.49 -83.26,14.88 -25.13,7.66 -45.97,19.51 -62.43,35.47 -16.41,15.88 -24.63,38.11 -24.63,66.66 0,32.18 9.05,56.56 27.23,73.02 18.04,16.41 44.57,24.63 79.46,24.63 29.83,0 56.86,-6.46 80.99,-19.37 24.19,-12.92 46.86,-28.81 68.01,-47.56zm0 78.45c-7.74,5.76 -18.06,13.75 -30.96,23.94 -12.92,10.25 -25.4,18.36 -37.5,24.45 -16.78,8.67 -32.99,15.44 -48.57,20.12 -15.63,4.63 -37.55,7.04 -65.71,7.04 -23.12,0 -45.09,-4.36 -65.93,-13.05 -20.77,-8.79 -39.06,-21.02 -54.83,-36.78 -15.06,-15.4 -27.16,-34.52 -36.27,-57.11 -8.99,-22.67 -13.55,-46.61 -13.55,-71.69 0,-38.93 8.22,-72.05 24.63,-99.47 16.46,-27.28 42.48,-49.02 78.01,-65.1 31.54,-14.43 68.83,-24.43 111.77,-30.01 42.93,-5.51 89.21,-9.62 138.92,-12.28l0 -18.18c0,-22.09 -3.43,-40.01 -10.07,-53.56 -6.78,-13.55 -16.08,-24 -28.18,-31.46 -12.1,-7.66 -26.85,-12.8 -44.32,-15.33 -17.43,-2.48 -35.4,-3.73 -53.83,-3.73 -21.84,0 -47.49,3.23 -77,9.82 -29.51,6.52 -59.02,16.01 -88.58,28.36l-5.51 0 0 -96.12c17.41,-5.01 42.43,-10.52 74.9,-16.53 32.61,-6.08 64.78,-9.12 96.64,-9.12 38.63,0 71.17,3.03 97.7,9.12 26.47,6.01 50.27,16.91 71.42,32.61 20.46,15.45 35.79,35.45 45.84,59.97 10.02,24.5 15.08,54.33 15.08,89.53l0 384.54 -94.09 0 0 -59.97z"/>
  <path class="fil1 str0" d="M14458.39 6407.58l0 -156.01c-22.49,2.03 -50.97,4.81 -85.36,8.29 -34.37,3.55 -62.1,8.49 -83.26,14.88 -25.13,7.66 -45.97,19.51 -62.43,35.47 -16.41,15.88 -24.63,38.11 -24.63,66.66 0,32.18 9.05,56.56 27.23,73.02 18.04,16.41 44.57,24.63 79.46,24.63 29.83,0 56.86,-6.46 80.99,-19.37 24.19,-12.92 46.86,-28.81 68.01,-47.56zm0 78.45c-7.74,5.76 -18.06,13.75 -30.96,23.94 -12.92,10.25 -25.4,18.36 -37.5,24.45 -16.78,8.67 -32.99,15.44 -48.57,20.12 -15.63,4.63 -37.55,7.04 -65.71,7.04 -23.12,0 -45.09,-4.36 -65.93,-13.05 -20.77,-8.79 -39.06,-21.02 -54.83,-36.78 -15.06,-15.4 -27.16,-34.52 -36.27,-57.11 -8.99,-22.67 -13.55,-46.61 -13.55,-71.69 0,-38.93 8.22,-72.05 24.63,-99.47 16.46,-27.28 42.48,-49.02 78.01,-65.1 31.54,-14.43 68.83,-24.43 111.77,-30.01 42.93,-5.51 89.21,-9.62 138.92,-12.28l0 -18.18c0,-22.09 -3.43,-40.01 -10.07,-53.56 -6.78,-13.55 -16.08,-24 -28.18,-31.46 -12.1,-7.66 -26.85,-12.8 -44.32,-15.33 -17.43,-2.48 -35.4,-3.73 -53.83,-3.73 -21.84,0 -47.49,3.23 -77,9.82 -29.51,6.52 -59.02,16.01 -88.58,28.36l-5.51 0 0 -96.12c17.41,-5.01 42.43,-10.52 74.9,-16.53 32.61,-6.08 64.78,-9.12 96.64,-9.12 38.63,0 71.17,3.03 97.7,9.12 26.47,6.01 50.27,16.91 71.42,32.61 20.46,15.45 35.79,35.45 45.84,59.97 10.02,24.5 15.08,54.33 15.08,89.53l0 384.54 -94.09 0 0 -59.97z"/>
  <path class="fil0" d="M15023.62 6393.51l0 -308.5c-23.42,-11.4 -45.21,-19.56 -65.08,-24.45 -20.01,-4.81 -39.9,-7.27 -59.66,-7.27 -48.05,0 -85.8,17.59 -113.27,52.81 -27.53,35.27 -41.28,85.8 -41.28,151.52 0,62.43 10.45,109.92 31.46,142.41 20.96,32.54 54.98,48.82 101.9,48.82 24.5,0 49.77,-4.88 75.73,-14.63 26.03,-9.69 49.45,-23.3 70.22,-40.71zm-318.05 242.56c6.39,2.67 15.78,6.28 28.18,10.84 12.4,4.56 26.53,8.79 42.31,12.78 17.41,4.38 33.49,7.92 48.3,10.57 14.75,2.67 30.91,4 48.32,4 29.18,0 53.88,-3.81 74.22,-11.52 20.32,-7.66 36.15,-18.43 47.55,-32.24 10.77,-13.75 18.29,-29.71 22.67,-47.8 4.36,-18.11 6.52,-38.75 6.52,-61.94l0 -49.25c-25.45,22.09 -50.45,38.5 -74.9,49 -24.57,10.64 -55.28,15.9 -92.13,15.9 -64.15,0 -115.05,-23.82 -153.05,-71.44 -37.93,-47.62 -56.79,-116.13 -56.79,-205.33 0,-46.67 6.52,-88.02 19.56,-124.12 13.1,-36.02 30.71,-66.61 52.88,-91.81 21.14,-24.19 46.09,-42.74 74.97,-55.84 28.81,-13.05 58.69,-19.64 89.58,-19.64 29.2,0 54.46,3.41 75.74,10.32 21.32,6.84 42.66,16.66 64.13,29.44l5.58 -24.18 89.08 0 0 498.26c0,95.29 -20.82,165.2 -62.43,209.84 -41.61,44.57 -105.18,66.93 -190.72,66.93 -27.53,0 -55.66,-2.15 -84.27,-6.59 -28.75,-4.31 -55.48,-10.19 -80.3,-17.54l0 -98.66 5.01 0z"/>
  <path class="fil1 str0" d="M15023.62 6393.51l0 -308.5c-23.42,-11.4 -45.21,-19.56 -65.08,-24.45 -20.01,-4.81 -39.9,-7.27 -59.66,-7.27 -48.05,0 -85.8,17.59 -113.27,52.81 -27.53,35.27 -41.28,85.8 -41.28,151.52 0,62.43 10.45,109.92 31.46,142.41 20.96,32.54 54.98,48.82 101.9,48.82 24.5,0 49.77,-4.88 75.73,-14.63 26.03,-9.69 49.45,-23.3 70.22,-40.71zm-318.05 242.56c6.39,2.67 15.78,6.28 28.18,10.84 12.4,4.56 26.53,8.79 42.31,12.78 17.41,4.38 33.49,7.92 48.3,10.57 14.75,2.67 30.91,4 48.32,4 29.18,0 53.88,-3.81 74.22,-11.52 20.32,-7.66 36.15,-18.43 47.55,-32.24 10.77,-13.75 18.29,-29.71 22.67,-47.8 4.36,-18.11 6.52,-38.75 6.52,-61.94l0 -49.25c-25.45,22.09 -50.45,38.5 -74.9,49 -24.57,10.64 -55.28,15.9 -92.13,15.9 -64.15,0 -115.05,-23.82 -153.05,-71.44 -37.93,-47.62 -56.79,-116.13 -56.79,-205.33 0,-46.67 6.52,-88.02 19.56,-124.12 13.1,-36.02 30.71,-66.61 52.88,-91.81 21.14,-24.19 46.09,-42.74 74.97,-55.84 28.81,-13.05 58.69,-19.64 89.58,-19.64 29.2,0 54.46,3.41 75.74,10.32 21.32,6.84 42.66,16.66 64.13,29.44l5.58 -24.18 89.08 0 0 498.26c0,95.29 -20.82,165.2 -62.43,209.84 -41.61,44.57 -105.18,66.93 -190.72,66.93 -27.53,0 -55.66,-2.15 -84.27,-6.59 -28.75,-4.31 -55.48,-10.19 -80.3,-17.54l0 -98.66 5.01 0z"/>
  <path class="fil0" d="M15610.17 6202.28c-0.7,-25.52 -3.68,-47.49 -9.06,-65.98 -5.38,-18.43 -13.1,-34 -23.1,-46.72 -11.15,-14.13 -25.27,-24.89 -42.56,-32.31 -17.28,-7.34 -38.7,-11 -64.2,-11 -25.15,0 -46.54,3.73 -64.15,11.25 -17.61,7.54 -33.62,18.56 -48.05,32.99 -14.13,14.75 -24.82,31.16 -32.18,49.07 -7.39,17.93 -12.08,38.82 -14.11,62.7l297.41 0zm-110.74 356.8c-89.55,0 -159.06,-25.27 -208.58,-75.73 -49.52,-50.53 -74.2,-122.27 -74.2,-215.17 0,-91.61 24,-164.5 71.92,-218.63 48,-54.26 110.74,-81.31 188.25,-81.31 34.89,0 65.8,5.01 92.63,15.08 26.8,10.12 50.27,25.9 70.41,47.3 20.14,21.54 35.59,47.74 46.29,78.78 10.7,31.02 16.15,69.01 16.15,113.97l0 51.35 -389.54 0c0,65.41 16.46,115.43 49.25,149.94 32.86,34.57 78.4,51.85 136.39,51.85 20.84,0 41.23,-2.35 61.24,-7.04 19.94,-4.74 37.98,-10.77 54.06,-18.16 17.11,-7.66 31.54,-15.13 43.26,-22.36 11.77,-7.22 21.47,-14.05 29.18,-20.39l5.56 0 0 103.22c-11.07,4.31 -24.81,9.82 -41.28,16.33 -16.39,6.52 -31.21,11.65 -44.26,15.33 -18.49,5.06 -35.2,8.87 -50.08,11.58 -15.01,2.73 -33.82,4.06 -56.66,4.06z"/>
  <path class="fil1 str0" d="M15610.17 6202.28c-0.7,-25.52 -3.68,-47.49 -9.06,-65.98 -5.38,-18.43 -13.1,-34 -23.1,-46.72 -11.15,-14.13 -25.27,-24.89 -42.56,-32.31 -17.28,-7.34 -38.7,-11 -64.2,-11 -25.15,0 -46.54,3.73 -64.15,11.25 -17.61,7.54 -33.62,18.56 -48.05,32.99 -14.13,14.75 -24.82,31.16 -32.18,49.07 -7.39,17.93 -12.08,38.82 -14.11,62.7l297.41 0zm-110.74 356.8c-89.55,0 -159.06,-25.27 -208.58,-75.73 -49.52,-50.53 -74.2,-122.27 -74.2,-215.17 0,-91.61 24,-164.5 71.92,-218.63 48,-54.26 110.74,-81.31 188.25,-81.31 34.89,0 65.8,5.01 92.63,15.08 26.8,10.12 50.27,25.9 70.41,47.3 20.14,21.54 35.59,47.74 46.29,78.78 10.7,31.02 16.15,69.01 16.15,113.97l0 51.35 -389.54 0c0,65.41 16.46,115.43 49.25,149.94 32.86,34.57 78.4,51.85 136.39,51.85 20.84,0 41.23,-2.35 61.24,-7.04 19.94,-4.74 37.98,-10.77 54.06,-18.16 17.11,-7.66 31.54,-15.13 43.26,-22.36 11.77,-7.22 21.47,-14.05 29.18,-20.39l5.56 0 0 103.22c-11.07,4.31 -24.81,9.82 -41.28,16.33 -16.39,6.52 -31.21,11.65 -44.26,15.33 -18.49,5.06 -35.2,8.87 -50.08,11.58 -15.01,2.73 -33.82,4.06 -56.66,4.06z"/>
  <path class="fil0" d="M16435.67 6545.98l0 -325.14c0,-25.77 -1.01,-49.65 -2.98,-71.69 -2.03,-21.97 -6.26,-39.2 -12.6,-51.6 -6.71,-13.43 -16.26,-23.3 -28.68,-29.63 -12.47,-6.39 -29.18,-9.57 -50.33,-9.57 -19.51,0 -40.35,5.96 -62.62,17.86 -22.36,11.85 -45.41,29.06 -69.28,51.55 0.32,5.76 0.83,12.53 1.27,20.44 0.57,7.86 0.83,17.16 0.83,27.93l0 369.85 -94.66 0 0 -325.14c0,-25.77 -1.02,-49.65 -2.98,-71.69 -2.03,-21.97 -6.21,-39.2 -12.67,-51.6 -6.64,-13.43 -16.21,-23.3 -28.61,-29.63 -12.42,-6.39 -29.2,-9.57 -50.35,-9.57 -20.44,0 -41.98,6.34 -64.4,19.13 -22.54,12.73 -44.32,28.93 -65.46,48.82l0 419.68 -94.54 0 0 -562.16 94.54 0 0 62.44c24.88,-24.82 49.45,-44.08 73.75,-57.63 24.32,-13.61 51.1,-20.39 80.23,-20.39 33.24,0 62.7,7.54 88.33,22.67 25.72,15.08 45.21,39.9 58.64,74.47 28.5,-31.86 56.36,-56.04 83.59,-72.5 27.16,-16.41 56.66,-24.64 88.52,-24.64 24.18,0 46.15,3.73 65.91,11.27 19.89,7.61 37.1,19.69 51.93,36.54 15.06,17.09 26.73,38.43 34.89,63.95 8.22,25.45 12.4,57.49 12.4,96.12l0 369.85 -94.66 0z"/>
  <path class="fil1 str0" d="M16435.67 6545.98l0 -325.14c0,-25.77 -1.01,-49.65 -2.98,-71.69 -2.03,-21.97 -6.26,-39.2 -12.6,-51.6 -6.71,-13.43 -16.26,-23.3 -28.68,-29.63 -12.47,-6.39 -29.18,-9.57 -50.33,-9.57 -19.51,0 -40.35,5.96 -62.62,17.86 -22.36,11.85 -45.41,29.06 -69.28,51.55 0.32,5.76 0.83,12.53 1.27,20.44 0.57,7.86 0.83,17.16 0.83,27.93l0 369.85 -94.66 0 0 -325.14c0,-25.77 -1.02,-49.65 -2.98,-71.69 -2.03,-21.97 -6.21,-39.2 -12.67,-51.6 -6.64,-13.43 -16.21,-23.3 -28.61,-29.63 -12.42,-6.39 -29.2,-9.57 -50.35,-9.57 -20.44,0 -41.98,6.34 -64.4,19.13 -22.54,12.73 -44.32,28.93 -65.46,48.82l0 419.68 -94.54 0 0 -562.16 94.54 0 0 62.44c24.88,-24.82 49.45,-44.08 73.75,-57.63 24.32,-13.61 51.1,-20.39 80.23,-20.39 33.24,0 62.7,7.54 88.33,22.67 25.72,15.08 45.21,39.9 58.64,74.47 28.5,-31.86 56.36,-56.04 83.59,-72.5 27.16,-16.41 56.66,-24.64 88.52,-24.64 24.18,0 46.15,3.73 65.91,11.27 19.89,7.61 37.1,19.69 51.93,36.54 15.06,17.09 26.73,38.43 34.89,63.95 8.22,25.45 12.4,57.49 12.4,96.12l0 369.85 -94.66 0z"/>
  <path class="fil0" d="M17018.07 6202.28c-0.7,-25.52 -3.68,-47.49 -9.06,-65.98 -5.37,-18.43 -13.1,-34 -23.1,-46.72 -11.15,-14.13 -25.27,-24.89 -42.56,-32.31 -17.36,-7.34 -38.68,-11 -64.2,-11 -25.15,0 -46.54,3.73 -64.15,11.25 -17.59,7.54 -33.62,18.56 -48.05,32.99 -14.13,14.75 -24.82,31.16 -32.16,49.07 -7.48,17.93 -12.1,38.82 -14.13,62.7l297.41 0zm-110.74 356.8c-89.55,0 -159.06,-25.27 -208.58,-75.73 -49.5,-50.53 -74.2,-122.27 -74.2,-215.17 0,-91.61 24,-164.5 71.92,-218.63 48,-54.26 110.74,-81.31 188.25,-81.31 34.89,0 65.8,5.01 92.63,15.08 26.8,10.12 50.29,25.9 70.41,47.3 20.14,21.54 35.59,47.74 46.29,78.78 10.7,31.02 16.15,69.01 16.15,113.97l0 51.35 -389.54 0c0,65.41 16.46,115.43 49.25,149.94 32.86,34.57 78.4,51.85 136.39,51.85 20.84,0 41.23,-2.35 61.24,-7.04 19.94,-4.74 37.98,-10.77 54.06,-18.16 17.11,-7.66 31.54,-15.13 43.26,-22.36 11.77,-7.22 21.47,-14.05 29.18,-20.39l5.58 0 0 103.22c-11.09,4.31 -24.82,9.82 -41.28,16.33 -16.41,6.52 -31.23,11.65 -44.26,15.33 -18.51,5.06 -35.22,8.87 -50.1,11.58 -15.01,2.73 -33.82,4.06 -56.66,4.06z"/>
  <path class="fil1 str0" d="M17018.07 6202.28c-0.7,-25.52 -3.68,-47.49 -9.06,-65.98 -5.37,-18.43 -13.1,-34 -23.1,-46.72 -11.15,-14.13 -25.27,-24.89 -42.56,-32.31 -17.36,-7.34 -38.68,-11 -64.2,-11 -25.15,0 -46.54,3.73 -64.15,11.25 -17.59,7.54 -33.62,18.56 -48.05,32.99 -14.13,14.75 -24.82,31.16 -32.16,49.07 -7.48,17.93 -12.1,38.82 -14.13,62.7l297.41 0zm-110.74 356.8c-89.55,0 -159.06,-25.27 -208.58,-75.73 -49.5,-50.53 -74.2,-122.27 -74.2,-215.17 0,-91.61 24,-164.5 71.92,-218.63 48,-54.26 110.74,-81.31 188.25,-81.31 34.89,0 65.8,5.01 92.63,15.08 26.8,10.12 50.29,25.9 70.41,47.3 20.14,21.54 35.59,47.74 46.29,78.78 10.7,31.02 16.15,69.01 16.15,113.97l0 51.35 -389.54 0c0,65.41 16.46,115.43 49.25,149.94 32.86,34.57 78.4,51.85 136.39,51.85 20.84,0 41.23,-2.35 61.24,-7.04 19.94,-4.74 37.98,-10.77 54.06,-18.16 17.11,-7.66 31.54,-15.13 43.26,-22.36 11.77,-7.22 21.47,-14.05 29.18,-20.39l5.58 0 0 103.22c-11.09,4.31 -24.82,9.82 -41.28,16.33 -16.41,6.52 -31.23,11.65 -44.26,15.33 -18.51,5.06 -35.22,8.87 -50.1,11.58 -15.01,2.73 -33.82,4.06 -56.66,4.06z"/>
  <path class="fil0" d="M17647.29 6545.98l-94.66 0 0 -320.08c0,-25.85 -1.27,-49.84 -3.81,-72.24 -2.48,-22.29 -7.29,-40.15 -14.25,-53.58 -7.79,-14.05 -18.54,-24.57 -32.29,-31.46 -13.73,-6.84 -32.54,-10.27 -56.29,-10.27 -23.49,0 -47.74,6.28 -72.75,18.81 -25.02,12.6 -49.4,28.93 -73.27,49.14l0 419.68 -94.54 0 0 -562.16 94.54 0 0 62.44c28.18,-25.22 56.04,-44.46 83.59,-57.88 27.48,-13.43 56.54,-20.14 87.05,-20.14 55.41,0 98.66,18.18 129.88,54.58 31.14,36.42 46.79,89.15 46.79,158.31l0 364.85z"/>
  <path class="fil1 str0" d="M17647.29 6545.98l-94.66 0 0 -320.08c0,-25.85 -1.27,-49.84 -3.81,-72.24 -2.48,-22.29 -7.29,-40.15 -14.25,-53.58 -7.79,-14.05 -18.54,-24.57 -32.29,-31.46 -13.73,-6.84 -32.54,-10.27 -56.29,-10.27 -23.49,0 -47.74,6.28 -72.75,18.81 -25.02,12.6 -49.4,28.93 -73.27,49.14l0 419.68 -94.54 0 0 -562.16 94.54 0 0 62.44c28.18,-25.22 56.04,-44.46 83.59,-57.88 27.48,-13.43 56.54,-20.14 87.05,-20.14 55.41,0 98.66,18.18 129.88,54.58 31.14,36.42 46.79,89.15 46.79,158.31l0 364.85z"/>
  <path class="fil0" d="M17950.64 6557.06c-51.67,0 -91.93,-14.68 -120.81,-44.06 -28.88,-29.31 -43.31,-75.73 -43.31,-139.1l0 -311.54 -63.9 0 0 -78.53 63.9 0 0 -161.52 94.66 0 0 161.52 174.12 0 0 78.53 -174.12 0 0 267.2c0,28.56 0.45,50.53 1.45,65.93 1.02,15.44 4.88,29.88 11.65,43.31 5.64,11.77 14.88,20.57 27.61,26.46 12.8,5.83 30.08,8.74 51.87,8.74 15.44,0 30.39,-2.21 44.82,-6.77 14.45,-4.51 24.82,-8.36 31.16,-11.34l5.56 0 0 85.1c-17.79,5.01 -35.83,8.94 -54.13,11.79 -18.29,2.84 -35.07,4.29 -50.53,4.29z"/>
  <path class="fil1 str0" d="M17950.64 6557.06c-51.67,0 -91.93,-14.68 -120.81,-44.06 -28.88,-29.31 -43.31,-75.73 -43.31,-139.1l0 -311.54 -63.9 0 0 -78.53 63.9 0 0 -161.52 94.66 0 0 161.52 174.12 0 0 78.53 -174.12 0 0 267.2c0,28.56 0.45,50.53 1.45,65.93 1.02,15.44 4.88,29.88 11.65,43.31 5.64,11.77 14.88,20.57 27.61,26.46 12.8,5.83 30.08,8.74 51.87,8.74 15.44,0 30.39,-2.21 44.82,-6.77 14.45,-4.51 24.82,-8.36 31.16,-11.34l5.56 0 0 85.1c-17.79,5.01 -35.83,8.94 -54.13,11.79 -18.29,2.84 -35.07,4.29 -50.53,4.29z"/>
  <polygon class="fil0 str0" points="18272.26,6546 18151.95,6546 18151.95,6402.57 18272.26,6402.57 "/>
  <polygon class="fil0" points="-0,6608.68 676.83,6608.68 676.83,88.49 -0,88.49 "/>
  <path class="fil0" d="M8730.69 4636.03c-73.7,0 -127.53,-10.64 -161.14,-32.24 -33.89,-21.47 -66.05,-69.08 -96.64,-142.73l-1464.37 -3149.62 0 5092.78c0,73.7 -13.8,122.9 -41.41,147.34 -27.66,24.57 -78.26,36.85 -151.95,36.85l-331.55 0c-73.64,0 -124.35,-12.28 -151.9,-36.85 -27.68,-24.45 -41.48,-73.64 -41.48,-147.34l0 -6188.71c0,-73.64 13.8,-122.72 41.48,-147.29 27.55,-24.5 78.26,-36.85 151.9,-36.85l506.55 0c73.59,0 127.35,10.89 161.16,32.29 33.62,21.59 65.91,69.01 96.67,142.66l1676.11 3646.95 1722.1 -3646.95c30.66,-73.64 62.87,-121.06 96.64,-142.66 33.74,-21.39 87.57,-32.29 161.2,-32.29l469.7 0c73.64,0 124.37,12.35 151.92,36.85 27.66,24.57 41.53,73.64 41.53,147.29l0 6188.71c0,73.7 -13.87,122.9 -41.53,147.34 -27.55,24.57 -78.27,36.85 -151.92,36.85l-331.53 0c-73.7,0 -124.3,-12.28 -151.97,-36.85 -27.53,-24.45 -41.41,-73.64 -41.41,-147.34l0 -5092.78 -1501.17 3149.62c-30.78,73.64 -62.95,121.26 -96.64,142.73 -33.87,21.59 -87.5,32.24 -161.14,32.24l-359.21 0z"/>
  <path class="fil0" d="M3490.68 0c1071.42,0 1781.49,405.37 2130.43,1215.74 37.42,89.46 70.04,178.81 98.09,268.21 11.97,38 22.72,77.57 32.42,118.86l-802.13 -0.63c-61.8,-212.94 -149.37,-387.96 -262.7,-524.98 -249.24,-300.89 -648.08,-451.47 -1196.11,-451.47 -548.16,0 -947.01,150.57 -1196.04,451.47 -249.24,301.02 -373.71,785.28 -373.71,1452.74l0 1591.14c0,667.59 124.47,1151.85 373.71,1452.74 249.02,300.89 647.88,451.41 1196.04,451.41 548.03,0 946.87,-150.52 1196.11,-451.41 34.57,-41.78 66.79,-87.2 96.55,-136.07l817.66 -0.07c-355.8,808.92 -1059.14,1213.27 -2110.31,1213.27 -1077.75,0 -1787.88,-399.16 -2130.38,-1197.81 -37.42,-89.4 -70.09,-180.21 -98.14,-272.71 -28.05,-92.26 -49.97,-192.18 -65.41,-299.49 -15.65,-107.26 -26.6,-227.9 -32.74,-362.06 -6.28,-133.99 -9.32,-287.41 -9.32,-460.33l0 -1376.64c0,-178.88 3.03,-336.67 9.32,-473.87 6.14,-137.04 17.09,-260.56 32.74,-371 15.44,-110.17 37.35,-211.49 65.41,-303.93 28.05,-92.33 60.72,-183.24 98.14,-272.59 348.76,-840.38 1058.82,-1260.51 2130.38,-1260.51z"/>
  <polygon class="fil2" points="13093.42,2515.02 13645.51,2515.02 13645.51,109.2 13093.42,109.2 "/>
  <polygon class="fil2" points="14572.39,1036.08 12166.56,1036.08 12166.56,1588.15 14572.39,1588.15 "/>
 </g>
</svg>
