<?xml version="1.0" standalone="no"?>
<!DOCTYPE svg PUBLIC "-//W3C//DTD SVG 20010904//EN"
 "http://www.w3.org/TR/2001/REC-SVG-20010904/DTD/svg10.dtd">
<svg version="1.0" xmlns="http://www.w3.org/2000/svg"
 width="512.000000pt" height="512.000000pt" viewBox="0 0 512.000000 512.000000"
 preserveAspectRatio="xMidYMid meet">

<g transform="translate(0.000000,512.000000) scale(0.100000,-0.100000)"
fill="##4EA8DE" stroke="none"> 
<path d="M2130 4966 c-376 -48 -714 -173 -1025 -381 -154 -102 -250 -181 -374
-305 -378 -378 -615 -850 -698 -1390 -24 -159 -24 -509 0 -670 68 -442 235
-832 505 -1175 83 -105 304 -321 413 -402 330 -247 683 -398 1109 -475 125
-22 129 -22 1409 -26 1418 -3 1327 -7 1433 60 58 36 130 112 157 166 52 102
51 71 51 1287 0 1234 2 1188 -57 1297 -39 72 -139 161 -211 189 l-59 23 -52
156 c-250 754 -888 1360 -1668 1584 -207 59 -281 69 -568 72 -173 2 -295 -2
-365 -10z m250 -708 l0 -611 -133 6 c-254 12 -624 77 -779 136 l-26 10 39 108
c126 346 331 657 537 813 104 78 260 147 340 149 l22 1 0 -612z m203 596 c258
-67 508 -315 692 -689 62 -126 145 -331 145 -359 0 -9 -39 -24 -112 -44 -220
-60 -462 -98 -690 -109 l-128 -6 0 611 c0 555 1 612 16 612 9 0 44 -7 77 -16z
m-623 -38 c-8 -8 -41 -36 -73 -64 -211 -182 -411 -518 -542 -910 -11 -31 -366
134 -542 252 l-65 44 89 87 c271 266 642 474 1028 575 131 35 123 33 105 16z
m1110 -31 c300 -86 575 -229 825 -432 122 -99 230 -207 221 -222 -22 -36 -382
-226 -529 -280 l-57 -21 -10 23 c-5 12 -26 67 -46 122 -109 297 -273 565 -450
735 -44 42 -92 86 -109 98 l-30 22 35 -7 c19 -3 87 -20 150 -38z m-2298 -796
c107 -70 302 -169 441 -224 65 -26 96 -43 93 -51 -15 -39 -69 -278 -90 -400
-26 -149 -51 -390 -62 -586 l-6 -118 -514 0 -514 0 0 48 c0 121 41 375 86 529
84 293 226 572 406 801 27 34 54 62 59 62 4 0 50 -27 101 -61z m3506 -31 c113
-151 197 -293 271 -458 43 -94 111 -283 111 -306 0 -12 -77 -14 -493 -14
l-493 0 -23 136 c-13 75 -38 197 -57 272 -19 74 -33 136 -32 138 2 1 39 16 83
34 128 50 352 164 450 229 50 32 95 60 102 60 6 1 43 -41 81 -91z m-2748 -297
c213 -59 484 -102 733 -117 l117 -6 0 -188 0 -187 -62 -31 c-83 -41 -128 -79
-173 -148 -55 -82 -75 -156 -75 -275 l0 -99 -405 0 -405 0 0 68 c0 103 18 319
41 487 29 214 98 525 117 525 4 0 54 -13 112 -29z m1939 -8 c28 -106 62 -258
76 -343 8 -52 17 -103 19 -112 4 -17 -27 -18 -535 -18 l-539 0 0 179 0 178
108 7 c267 17 505 53 712 110 69 19 130 34 137 35 7 1 17 -16 22 -36z m-249
-812 c0 -220 1 -229 23 -261 12 -18 35 -43 50 -54 27 -20 40 -21 297 -21 256
0 270 1 296 21 68 51 69 52 72 310 l3 235 397 -3 397 -3 55 -26 c66 -32 123
-86 158 -154 l27 -50 0 -1180 0 -1180 -27 -50 c-32 -62 -103 -129 -166 -158
l-47 -22 -1165 0 -1165 0 -55 26 c-66 31 -131 94 -162 157 l-23 47 -3 1165
c-2 1026 0 1170 13 1210 31 94 105 166 208 201 46 16 93 18 435 19 l382 0 0
-229z m630 11 c0 -156 -3 -221 -12 -230 -9 -9 -78 -12 -249 -12 -234 0 -238 0
-253 22 -13 19 -16 58 -16 230 l0 208 265 0 265 0 0 -218z m-2696 -459 c20
-359 66 -679 135 -928 11 -38 18 -72 15 -76 -2 -4 -15 -10 -29 -13 -97 -25
-389 -171 -534 -268 -61 -41 -75 -47 -85 -35 -177 223 -288 414 -381 652 -79
202 -137 462 -151 679 l-7 106 516 0 515 0 6 -117z m914 -360 l2 -473 -22 -4
c-13 -2 -75 -11 -138 -20 -125 -18 -299 -55 -423 -91 l-77 -22 -10 36 c-77
289 -122 588 -136 894 l-7 157 404 -2 404 -3 3 -472z m4 -1075 l3 -493 33 -69
c18 -38 31 -71 29 -73 -3 -2 -38 19 -78 46 -139 93 -281 254 -396 448 -100
170 -236 499 -210 508 119 42 488 119 589 124 l27 1 3 -492z m-695 228 c117
-343 335 -686 534 -843 33 -25 57 -48 55 -50 -7 -7 -137 26 -251 63 -312 103
-636 298 -890 537 l-90 84 95 62 c138 90 449 239 500 241 10 0 25 -31 47 -94z"/>
<path d="M4029 699 c-14 -14 -18 -27 -14 -42 14 -46 24 -47 310 -47 296 0 308
2 308 55 0 53 -12 55 -310 55 -262 0 -274 -1 -294 -21z"/>
</g>
</svg>
